<svg width="2987" height="754" viewBox="0 0 2987 754" fill="none" xmlns="http://www.w3.org/2000/svg">
<path d="M78.1317 722.69H42.3797C34.6926 722.69 28.4399 716.436 28.4399 708.75C28.4399 708.669 28.3742 708.603 28.2931 708.603H0.147108C0.0660417 708.603 0.000244141 708.669 0.000244141 708.75C0.000244141 732.118 19.0118 751.129 42.3797 751.129H78.1317C101.501 751.129 120.511 732.118 120.511 708.75C120.511 685.382 101.5 666.37 78.1317 666.37H42.3797C34.6926 666.37 28.4399 660.117 28.4399 652.431C28.4399 644.745 34.6926 638.491 42.3797 638.491H78.1317C85.8188 638.491 92.0715 644.745 92.0715 652.431C92.0715 652.512 92.1372 652.578 92.2183 652.578H120.364C120.445 652.578 120.511 652.512 120.511 652.431C120.511 629.063 101.5 610.051 78.1317 610.051H42.3797C19.0106 610.051 0.000244141 629.063 0.000244141 652.431C0.000244141 675.799 19.0118 694.81 42.3797 694.81H78.1317C85.8188 694.81 92.0715 701.064 92.0715 708.75C92.0715 716.436 85.8188 722.69 78.1317 722.69Z" fill="#F9FAFB"/>
<path d="M180.804 751.132H210.363C210.428 751.132 210.484 751.091 210.503 751.029L216.671 731.86H265.1L271.268 751.029C271.288 751.091 271.343 751.132 271.407 751.132H300.967C301.014 751.132 301.057 751.109 301.085 751.072C301.114 751.034 301.121 750.985 301.108 750.94L255.806 610.157C255.786 610.096 255.731 610.055 255.667 610.055H226.107C226.043 610.055 225.986 610.096 225.967 610.157L180.664 750.94C180.65 750.985 180.657 751.034 180.685 751.072C180.713 751.109 180.757 751.132 180.804 751.132ZM225.828 703.405L240.886 656.607L255.944 703.405H225.828Z" fill="#F9FAFB"/>
<path d="M371.527 751.128H399.673C399.754 751.128 399.819 751.062 399.819 750.981V610.198C399.819 610.117 399.754 610.051 399.673 610.051H371.527C371.445 610.051 371.38 610.117 371.38 610.198V750.981C371.38 751.062 371.445 751.128 371.527 751.128Z" fill="#F9FAFB"/>
<path d="M470.243 638.502H516.101V750.981C516.101 751.062 516.166 751.128 516.247 751.128H544.404C544.485 751.128 544.551 751.062 544.551 750.981V638.502H590.409C590.49 638.502 590.556 638.436 590.556 638.355V610.198C590.556 610.117 590.49 610.051 590.409 610.051H470.243C470.162 610.051 470.097 610.117 470.097 610.198V638.355C470.097 638.436 470.161 638.502 470.243 638.502Z" fill="#F9FAFB"/>
<path d="M622.714 751.132H652.274C652.338 751.132 652.395 751.091 652.414 751.029L658.582 731.86H707.01L713.178 751.029C713.198 751.091 713.253 751.132 713.318 751.132H742.877C742.924 751.132 742.968 751.109 742.996 751.072C743.024 751.034 743.031 750.985 743.018 750.94L697.717 610.157C697.697 610.096 697.642 610.055 697.577 610.055H668.018C667.953 610.055 667.897 610.096 667.878 610.157L622.574 750.94C622.56 750.985 622.567 751.034 622.596 751.072C622.624 751.109 622.667 751.132 622.714 751.132ZM667.738 703.405L682.796 656.607L697.855 703.405H667.738Z" fill="#F9FAFB"/>
<path d="M933.643 750.985C933.643 751.066 933.709 751.132 933.79 751.132H961.939C962.02 751.132 962.086 751.066 962.086 750.985V610.202C962.086 610.121 962.02 610.055 961.939 610.055H928.844C928.793 610.055 928.745 610.081 928.719 610.124L887.688 676.479L846.658 610.124C846.632 610.081 846.584 610.055 846.533 610.055H813.437C813.356 610.055 813.291 610.121 813.291 610.202V750.985C813.291 751.066 813.356 751.132 813.437 751.132H841.575C841.656 751.132 841.722 751.066 841.722 750.985V656.209L887.564 730.338C887.617 730.425 887.761 730.425 887.814 730.338L933.644 656.233L933.643 750.985Z" fill="#F9FAFB"/>
<path d="M1032.55 751.132H1062.11C1062.17 751.132 1062.23 751.091 1062.25 751.029L1068.41 731.86H1116.84L1123.01 751.029C1123.03 751.091 1123.09 751.132 1123.15 751.132H1152.71C1152.76 751.132 1152.8 751.109 1152.83 751.072C1152.86 751.034 1152.86 750.985 1152.85 750.94L1107.55 610.157C1107.53 610.096 1107.48 610.055 1107.41 610.055H1077.85C1077.79 610.055 1077.73 610.096 1077.71 610.157L1032.41 750.94C1032.39 750.985 1032.4 751.034 1032.43 751.072C1032.46 751.109 1032.5 751.132 1032.55 751.132ZM1077.57 703.405L1092.63 656.607L1107.69 703.405H1077.57Z" fill="#F9FAFB"/>
<path d="M1457.05 610.055H1428.91C1428.83 610.055 1428.76 610.121 1428.76 610.202V690.898C1428.76 708.428 1414.5 722.688 1396.97 722.688C1379.44 722.688 1365.18 708.427 1365.18 690.898V610.202C1365.18 610.121 1365.11 610.055 1365.03 610.055H1336.89C1336.8 610.055 1336.74 610.121 1336.74 610.202V690.898C1336.74 724.109 1363.76 751.128 1396.97 751.128C1430.18 751.128 1457.2 724.109 1457.2 690.898V610.202C1457.2 610.121 1457.13 610.055 1457.05 610.055Z" fill="#F9FAFB"/>
<path d="M1527.61 751.132H1555.75C1555.83 751.132 1555.89 751.066 1555.89 750.985V656.221L1614.55 751.062C1614.58 751.106 1614.63 751.132 1614.68 751.132H1647.77C1647.85 751.132 1647.92 751.066 1647.92 750.985V610.202C1647.92 610.121 1647.85 610.055 1647.77 610.055H1619.62C1619.54 610.055 1619.48 610.121 1619.48 610.202V704.966L1560.83 610.124C1560.8 610.081 1560.76 610.055 1560.7 610.055H1527.61C1527.53 610.055 1527.46 610.121 1527.46 610.202V750.985C1527.46 751.066 1527.53 751.132 1527.61 751.132Z" fill="#F9FAFB"/>
<path d="M1718.33 751.128H1746.48C1746.56 751.128 1746.62 751.062 1746.62 750.981V610.198C1746.62 610.117 1746.56 610.051 1746.48 610.051H1718.33C1718.25 610.051 1718.18 610.117 1718.18 610.198V750.981C1718.18 751.062 1718.25 751.128 1718.33 751.128Z" fill="#F9FAFB"/>
<path d="M1862.35 751.132H1891.91C1891.97 751.132 1892.03 751.091 1892.05 751.029L1937.35 610.246C1937.37 610.202 1937.36 610.152 1937.33 610.115C1937.3 610.077 1937.26 610.055 1937.21 610.055H1907.65C1907.59 610.055 1907.53 610.096 1907.51 610.157L1877.13 704.58L1846.75 610.157C1846.73 610.096 1846.67 610.055 1846.61 610.055H1817.05C1817 610.055 1816.96 610.077 1816.93 610.115C1816.9 610.152 1816.89 610.202 1816.91 610.246L1862.21 751.029C1862.23 751.091 1862.29 751.132 1862.35 751.132Z" fill="#F9FAFB"/>
<path d="M2007.77 751.128H2127.94C2128.02 751.128 2128.09 751.062 2128.09 750.981V722.825C2128.09 722.744 2128.02 722.678 2127.94 722.678H2036.08V694.815H2099.79C2099.87 694.815 2099.94 694.749 2099.94 694.668V666.511C2099.94 666.43 2099.87 666.364 2099.79 666.364H2036.08V638.502H2127.94C2128.02 638.502 2128.09 638.436 2128.09 638.355V610.198C2128.09 610.117 2128.02 610.051 2127.94 610.051H2007.77C2007.69 610.051 2007.62 610.117 2007.62 610.198V750.981C2007.62 751.062 2007.69 751.128 2007.77 751.128Z" fill="#F9FAFB"/>
<path d="M2198.5 751.132H2226.65C2226.73 751.132 2226.79 751.066 2226.79 750.985V720.292H2263.69C2264.59 720.292 2265.49 720.267 2266.38 720.223L2285.45 751.062C2285.48 751.106 2285.52 751.132 2285.57 751.132H2318.66C2318.71 751.132 2318.76 751.102 2318.79 751.056C2318.81 751.009 2318.81 750.953 2318.78 750.908L2294.16 711.09C2309.59 700.85 2318.8 683.7 2318.8 665.173C2318.8 634.781 2294.08 610.055 2263.69 610.055H2198.49C2198.41 610.055 2198.35 610.121 2198.35 610.202V750.985C2198.35 751.066 2198.41 751.132 2198.5 751.132ZM2279.06 686.966C2274.57 690.16 2269.26 691.848 2263.69 691.848H2226.79V638.498H2263.69C2278.4 638.498 2290.36 650.465 2290.36 665.173C2290.36 673.824 2286.14 681.97 2279.06 686.966Z" fill="#F9FAFB"/>
<path d="M2464.18 722.69H2428.43C2420.74 722.69 2414.49 716.436 2414.49 708.75C2414.49 708.669 2414.42 708.603 2414.34 708.603H2386.2C2386.12 708.603 2386.05 708.669 2386.05 708.75C2386.05 732.118 2405.06 751.129 2428.43 751.129H2464.18C2487.55 751.129 2506.56 732.118 2506.56 708.75C2506.56 685.382 2487.55 666.37 2464.18 666.37H2428.43C2420.74 666.37 2414.49 660.117 2414.49 652.431C2414.49 644.745 2420.74 638.491 2428.43 638.491H2464.18C2471.87 638.491 2478.12 644.745 2478.12 652.431C2478.12 652.512 2478.19 652.578 2478.27 652.578H2506.41C2506.49 652.578 2506.56 652.512 2506.56 652.431C2506.56 629.063 2487.55 610.051 2464.18 610.051H2428.43C2405.06 610.051 2386.05 629.063 2386.05 652.431C2386.05 675.799 2405.06 694.81 2428.43 694.81H2464.18C2471.87 694.81 2478.12 701.064 2478.12 708.75C2478.12 716.436 2471.87 722.69 2464.18 722.69Z" fill="#F9FAFB"/>
<path d="M2576.92 751.128H2605.07C2605.15 751.128 2605.21 751.062 2605.21 750.981V610.198C2605.21 610.117 2605.15 610.051 2605.07 610.051H2576.92C2576.84 610.051 2576.77 610.117 2576.77 610.198V750.981C2576.77 751.062 2576.84 751.128 2576.92 751.128Z" fill="#F9FAFB"/>
<path d="M2675.64 638.502H2721.49V750.981C2721.49 751.062 2721.56 751.128 2721.64 751.128H2749.8C2749.88 751.128 2749.94 751.062 2749.94 750.981V638.502H2795.8C2795.88 638.502 2795.95 638.436 2795.95 638.355V610.198C2795.95 610.117 2795.88 610.051 2795.8 610.051H2675.64C2675.56 610.051 2675.49 610.117 2675.49 610.198V638.355C2675.49 638.436 2675.55 638.502 2675.64 638.502Z" fill="#F9FAFB"/>
<path d="M2986.65 610.123C2986.62 610.081 2986.57 610.055 2986.52 610.055H2955.53C2955.47 610.055 2955.42 610.088 2955.4 610.141L2926.44 672.798L2897.49 610.141C2897.46 610.089 2897.41 610.055 2897.35 610.055H2866.36C2866.31 610.055 2866.26 610.081 2866.23 610.123C2866.21 610.165 2866.2 610.218 2866.23 610.264L2910.8 706.767L2912.22 709.839V750.985C2912.22 751.066 2912.29 751.132 2912.37 751.132H2940.51C2940.59 751.132 2940.66 751.066 2940.66 750.985V709.846L2942.08 706.765C2942.08 706.762 2942.08 706.756 2942.08 706.752L2986.66 610.263C2986.68 610.218 2986.67 610.165 2986.65 610.123Z" fill="#F9FAFB"/>
<path d="M425.016 500.354C425.016 500.64 425.248 500.872 425.534 500.872H524.943C525.229 500.872 525.461 500.64 525.461 500.354V3.18799C525.461 2.9017 525.229 2.66943 524.943 2.66943H408.067C407.889 2.66943 407.719 2.76077 407.628 2.91423L262.731 237.241L117.834 2.91423C117.742 2.7607 117.572 2.66943 117.394 2.66943H0.518609C0.232316 2.66943 0 2.9017 0 3.18799V500.354C0 500.64 0.232316 500.872 0.518609 500.872H99.8854C100.172 500.872 100.404 500.64 100.404 500.354V165.66L262.291 427.44C262.478 427.747 262.988 427.747 263.174 427.44L425.02 165.743L425.016 500.354Z" fill="#F9FAFB"/>
<path d="M1225.19 157.543C1225.28 157.697 1225.45 157.788 1225.63 157.788C1225.8 157.788 1225.97 157.696 1226.06 157.543L1321.37 3.45201C1321.47 3.29024 1321.47 3.09108 1321.38 2.9251C1321.29 2.75913 1321.11 2.65959 1320.93 2.65959H1130.32C1130.14 2.65959 1129.96 2.75913 1129.87 2.9251C1129.78 3.09108 1129.79 3.29016 1129.88 3.45201L1225.19 157.543ZM1226.07 345.979C1225.88 345.676 1225.38 345.676 1225.19 345.979L1129.88 500.07C1129.79 500.231 1129.78 500.431 1129.87 500.597C1129.96 500.763 1130.14 500.862 1130.32 500.862H1320.93C1321.11 500.862 1321.29 500.763 1321.38 500.597C1321.47 500.431 1321.47 500.232 1321.37 500.07L1226.07 345.979ZM1167.66 251.508L1013.94 2.90449C1013.93 2.88792 1013.91 2.88362 1013.89 2.86705C1013.86 2.81727 1013.81 2.78828 1013.76 2.75507C1013.71 2.72606 1013.66 2.70534 1013.6 2.6929C1013.57 2.68458 1013.54 2.64722 1013.49 2.64722H810.945C810.936 2.64722 810.928 2.6597 810.92 2.6597H749.126C748.902 2.6597 748.698 2.80484 748.632 3.02059L588.649 500.186C588.6 500.344 588.629 500.518 588.724 500.651C588.82 500.784 588.977 500.862 589.143 500.862H693.53C693.754 500.862 693.957 500.717 694.024 500.501L715.806 432.808H886.833L908.614 500.501C908.685 500.717 908.884 500.862 909.108 500.862H1013.49C1013.53 500.862 1013.56 500.858 1013.59 500.854C1013.72 500.829 1013.83 500.755 1013.9 500.659C1013.9 500.655 1013.91 500.655 1013.91 500.651C1013.92 500.647 1013.91 500.634 1013.92 500.63C1013.92 500.626 1013.93 500.626 1013.93 500.622L1167.65 252.06C1167.76 251.89 1167.76 251.678 1167.66 251.508ZM748.142 332.316L801.319 167.052L854.496 332.316H748.142Z" fill="#F9FAFB"/>
<path d="M1384.66 500.86H1484.05C1484.34 500.86 1484.57 500.627 1484.57 500.341V3.17565C1484.57 2.88935 1484.34 2.65698 1484.05 2.65698H1384.66C1384.37 2.65698 1384.14 2.88935 1384.14 3.17565V500.341C1384.14 500.627 1384.37 500.86 1384.66 500.86Z" fill="#F9FAFB"/>
<path d="M1972.62 500.354C1972.62 500.64 1972.85 500.872 1973.14 500.872H2072.54C2072.83 500.872 2073.06 500.64 2073.06 500.354V3.18799C2073.06 2.9017 2072.83 2.66943 2072.54 2.66943H1955.67C1955.49 2.66943 1955.32 2.76077 1955.23 2.91423L1810.33 237.241L1665.43 2.91423C1665.34 2.7607 1665.17 2.66943 1664.99 2.66943H1548.12C1547.83 2.66943 1547.6 2.9017 1547.6 3.18799V500.354C1547.6 500.64 1547.83 500.872 1548.12 500.872H1647.49C1647.77 500.872 1648 500.64 1648 500.354V165.66L1809.89 427.44C1810.08 427.747 1810.59 427.747 1810.78 427.44L1972.62 165.743L1972.62 500.354Z" fill="#F9FAFB"/>
<path d="M2362.84 288.176V3.16954C2362.84 2.88325 2362.61 2.65088 2362.32 2.65088H2136.74C2136.46 2.65088 2136.22 2.88325 2136.22 3.16954V288.176C2136.22 350.642 2187.04 401.462 2249.51 401.462C2312 401.462 2362.84 350.642 2362.84 288.176ZM2986.15 2.67996H2869.28C2869.1 2.67996 2868.93 2.77133 2868.84 2.92898L2723.94 237.256L2579.04 2.92486C2578.95 2.77133 2578.78 2.67584 2578.6 2.67584H2461.73C2461.44 2.67584 2461.21 2.90821 2461.21 3.1945V288.167C2461.21 404.877 2366.26 499.825 2249.55 499.825C2249.27 499.825 2249.03 500.057 2249.03 500.343C2249.03 500.63 2249.27 500.862 2249.55 500.862H2461.68C2461.7 500.862 2461.71 500.883 2461.73 500.883H2561.09C2561.38 500.883 2561.61 500.65 2561.61 500.364V165.67L2723.5 427.451C2723.69 427.758 2724.19 427.758 2724.38 427.451L2886.22 165.753V500.364C2886.22 500.65 2886.46 500.883 2886.74 500.883H2986.15C2986.44 500.883 2986.67 500.65 2986.67 500.364V3.19862C2986.67 2.9082 2986.44 2.67996 2986.15 2.67996Z" fill="#F9FAFB"/>
</svg>
