<svg xmlns="http://www.w3.org/2000/svg" xml:space="preserve" viewBox="0 0 400 400"><defs><clipPath id="a" clipPathUnits="userSpaceOnUse"><path d="M0 300h300V0H0Z"/></clipPath></defs><g clip-path="url(#a)" transform="matrix(1.33333 0 0 -1.33333 0 400)"><path d="M222.77 72.64c-16.18-17.26-38.17-22.93-64.78-25.63-53.89-5.45-100.57 18.63-106.22 78.75-2.4 25.56 3.28 49.86 14.75 69.77l-6.67 26.26c-1.08 4.57 3.12 8.91 7.57 7.83l23.07-5.6c13.71 11.27 30.3 18.63 48.61 20.48a89 89 0 0 0 44.64-7.03l21.68 13.11c4.09 2.47 9.25-.32 9.64-5.2l1.25-30.94c16.68-17.6 28.03-41.65 30.6-68.95 1.46-15.42-.14-27.22-4.24-38.47-1.91-5.27-2.49-9.73.97-14.14 3.34-4.26 8.65-12.53 14.56-11.14 8.88 2.08 18.4 1.53 24.27-2.14A149 149 0 0 1 300 150c0 82.84-67.16 150-150 150S0 232.84 0 150 67.16 0 150 0c42.48 0 80.83 17.66 108.12 46.04a35 35 0 0 0-14.33 5.68c-8.93 5.95-16.86 11.58-21.02 20.92" fill="#55c500"/><path d="m208.92 182.62 14 1.72-.19 2.52-14.37-1.76a64 64 0 0 1-2.08 5.32l15.83 5.06-.5 3.17-16.84-5.84c-11.3 23.68-35.71 38.06-63.36 35.26-27.6-2.79-49.47-22.66-56.17-48.1l-16.47 2.5-.18-3.24 16.22-1.76c-.44-1.87-.8-2.98-1.08-4.9l-14.15-1.13.13-2.53 13.8 1.1a50 50 0 0 1-.42-5.71l-12.6-5.15.62-3.12 12 5.61c.02-1.67.1-2.56.25-4.26 3.34-35.46 32.96-42.47 68.35-38.9 35.4 3.58 63.15 16.4 59.81 51.86-.16 1.7-.4 2.59-.69 4.24l13-2.82.3 2.86-13.63 2.6c-.43 2.1-.96 3.37-1.58 5.4" fill="#55c500"/><path d="m223.83 171.76-13 2.82c.3-1.65.53-2.54.7-4.24 3.33-35.46-24.43-48.28-59.82-51.86s-65.01 3.44-68.34 38.9a47 47 0 0 0-.26 4.26l-12-5.61-.62 3.12 12.6 5.15c.03 2.19.17 3.57.42 5.7l-13.8-1.1-.12 2.54 14.14 1.12c.27 1.92.63 3.03 1.07 4.9l-16.22 1.76.18 3.23 16.47-2.5c6.7 25.45 28.56 45.32 56.17 48.11 27.65 2.8 52.07-11.58 63.36-35.26l16.84 5.83.5-3.16-15.83-5.06q1.15-2.6 2.08-5.32l14.38 1.77.2-2.52-14-1.72c.62-2.02 1.14-3.3 1.57-5.4l13.63-2.61Zm34.37-90.02c-5.91-1.38-11.21 6.89-14.56 11.15-3.46 4.4-2.88 8.86-.97 14.13 4.1 11.25 5.69 23.05 4.24 38.47-2.57 27.3-13.92 51.35-30.6 68.97l-1.25 30.93c-.39 4.88-5.55 7.67-9.63 5.2l-21.7-13.11a89 89 0 0 1-44.64 7.03c-18.3-1.85-34.9-9.21-48.61-20.48l-23.07 5.6c-4.45 1.08-8.65-3.26-7.58-7.82l6.68-26.27c-11.47-19.9-17.16-44.2-14.75-69.77 5.65-60.13 52.33-84.2 106.22-78.74 26.61 2.69 48.6 8.36 64.78 25.62 4.16-9.34 12.09-14.97 21.02-20.92a35 35 0 0 1 14.33-5.68q1.92 2 3.77 4.07l.27.31q3.68 4.13 7.05 8.55l.18.22a150 150 0 0 1 13.07 20.42c-5.89 3.66-15.39 4.22-24.26 2.13" fill="#fff"/></g></svg>
